<svg width="1000" height="700" xmlns="http://www.w3.org/2000/svg"><g class="layer"><text font-size="22" font-weight="bold" text-anchor="middle" x="450" y="30">ER-диаграмма базы данных (нотация Crow&apos;s Foot)</text><rect fill="#E3F2FD" height="160" rx="5" ry="5" stroke="#1976D2" stroke-width="2" width="250" x="50" y="80"/><rect fill="#1976D2" height="30" rx="5" ry="5" stroke="#1976D2" stroke-width="2" width="250" x="50" y="80"/><text fill="#fff" font-size="16" font-weight="bold" text-anchor="middle" x="175" y="100">Teams</text><text font-size="14" x="70" y="130">PK team_id: INT</text><text font-size="14" x="70" y="155">name: VARCHAR(100)</text><text font-size="14" x="70" y="180">city: VARCHAR(100)</text><text font-size="14" x="70" y="205">coach: VARCHAR(100)</text><text font-size="14" x="70" y="230">last_season_place: INT</text><rect fill="#E8F5E9" height="208.87" rx="5" ry="5" stroke="#388E3C" stroke-width="2" width="250" x="400" y="80"/><rect fill="#388E3C" height="30" rx="5" ry="5" stroke="#388E3C" stroke-width="2" width="250" x="400" y="80"/><text fill="#fff" font-size="16" font-weight="bold" text-anchor="middle" x="525" y="100">Players</text><text font-size="14" x="420" y="130">PK player_id: INT</text><text font-size="14" x="420" y="155">FK team_id: INT</text><text font-size="14" x="420" y="180">first_name: VARCHAR(50)</text><text font-size="14" x="420" y="205">last_name: VARCHAR(50)</text><text font-size="14" x="420" y="230">age: INT</text><text font-size="14" x="420" y="255">jersey_number: INT</text><text font-size="14" x="420" y="280">position: VARCHAR(50)</text><rect fill="#FFF3E0" height="140" rx="5" ry="5" stroke="#E65100" stroke-width="2" width="250" x="50" y="320"/><rect fill="#E65100" height="30" rx="5" ry="5" stroke="#E65100" stroke-width="2" width="250" x="50" y="320"/><text fill="#fff" font-size="16" font-weight="bold" text-anchor="middle" x="175" y="340">Stadiums</text><text font-size="14" x="70" y="370">PK stadium_id: INT</text><text font-size="14" x="70" y="395">name: VARCHAR(100)</text><text font-size="14" x="70" y="420">city: VARCHAR(100)</text><text font-size="14" x="70" y="445">capacity: INT</text><rect fill="#E1F5FE" height="234.68" rx="5" ry="5" stroke="#0288D1" stroke-width="2" width="250" x="400" y="320"/><rect fill="#0288D1" height="30" rx="5" ry="5" stroke="#0288D1" stroke-width="2" width="250" x="400" y="320"/><text fill="#fff" font-size="16" font-weight="bold" text-anchor="middle" x="525" y="340">Matches</text><text font-size="14" x="420" y="370">PK match_id: INT</text><text font-size="14" x="420" y="395">date: DATE</text><text font-size="14" x="420" y="420">FK home_team_id: INT</text><text font-size="14" x="420" y="445">FK away_team_id: INT</text><text font-size="14" x="420" y="470">FK stadium_id: INT</text><text font-size="14" x="420" y="495">home_goals: INT</text><text font-size="14" x="420" y="520">away_goals: INT</text><text font-size="14" x="420" y="545">status: VARCHAR(20)</text><rect fill="#F3E5F5" height="140" rx="5" ry="5" stroke="#7B1FA2" stroke-width="2" width="250" x="700" y="320"/><rect fill="#7B1FA2" height="30" rx="5" ry="5" stroke="#7B1FA2" stroke-width="2" width="250" x="700" y="320"/><text fill="#fff" font-size="16" font-weight="bold" text-anchor="middle" x="825" y="340">Tickets</text><text font-size="14" x="720" y="370">PK ticket_id: INT</text><text font-size="14" x="720" y="395">FK match_id: INT</text><text font-size="14" x="720" y="420">category: VARCHAR(20)</text><text font-size="14" x="720" y="445">price: DECIMAL(10,2)</text><rect fill="#FFEBEE" height="160" rx="5" ry="5" stroke="#C62828" stroke-width="2" width="250" x="700" y="80"/><rect fill="#C62828" height="30" rx="5" ry="5" stroke="#C62828" stroke-width="2" width="250" x="700" y="80"/><text fill="#fff" font-size="16" font-weight="bold" text-anchor="middle" x="825" y="100">Users</text><text font-size="14" x="720" y="130">PK user_id: INT</text><text font-size="14" x="720" y="155">username: VARCHAR(50)</text><text font-size="14" x="720" y="180">password_hash: VARCHAR(255)</text><text font-size="14" x="720" y="205">role: VARCHAR(20)</text><text font-size="14" x="720" y="230">email: VARCHAR(100)</text><rect fill="#ECEFF1" height="205.81" rx="5" ry="5" stroke="#455A64" stroke-width="2" width="250" x="50" y="490"/><rect fill="#455A64" height="30" rx="5" ry="5" stroke="#455A64" stroke-width="2" width="250" x="50" y="490"/><text fill="#fff" font-size="16" font-weight="bold" text-anchor="middle" x="175" y="510">Audit_Log</text><text font-size="14" x="70" y="540">PK log_id: INT</text><text font-size="14" x="70" y="565">FK user_id: INT</text><text font-size="14" x="70" y="590">action: VARCHAR(100)</text><text font-size="14" x="70" y="615">entity_type: VARCHAR(50)</text><text font-size="14" x="70" y="640">entity_id: INT</text><text font-size="14" x="70" y="665">timestamp: TIMESTAMP</text><text font-size="14" x="70" y="690">details: TEXT</text><path stroke="#000" stroke-width="2" d="m300 160 100-5M310 155v10M320 155v10M390 150l10 5M390 160l10-5"/><path stroke="#000" stroke-width="1.5" d="M175 240v160M175 400l225 20M170.16 243.87h10M175.16 234.84v10M390 415l10 5M390 425l10-5M300 200h50M350 200v245M350 445h50M290 195l10 5M290 205l10-5M390 440l10 5M390 450l10-5M300 390l100 80M290 385l10 5M290 395l10-5M390 465l10 5M390 475l10-5M650 395h50M650 390v10M660 390v10M690 390l10 5M690 400l10-5M825 240v325M825 565H300M820 235h10M825 230v10M310 560l-10 5M310 570l-10-5"/></g></svg>