<svg width="1000" height="720" xmlns="http://www.w3.org/2000/svg"><g class="layer"><text font-size="22" font-weight="bold" text-anchor="middle" x="500" y="30">ER-диаграмма базы данных (нотация Crow's Foot)</text><rect fill="#E3F2FD" height="160" rx="5" ry="5" stroke="#1976D2" stroke-width="2" width="250" x="50" y="80"/><rect fill="#1976D2" height="30" rx="5" ry="5" stroke="#1976D2" stroke-width="2" width="250" x="50" y="80"/><text fill="#fff" font-size="16" font-weight="bold" text-anchor="middle" x="175" y="100">Teams</text><text font-size="14" x="70" y="130">PK team_id: INT</text><text font-size="14" x="70" y="155">name: VARCHAR(100)</text><text font-size="14" x="70" y="180">city: VARCHAR(100)</text><text font-size="14" x="70" y="205">coach: VARCHAR(100)</text><text font-size="14" x="70" y="230">last_season_place: INT</text><rect fill="#E8F5E9" height="208.87" rx="5" ry="5" stroke="#388E3C" stroke-width="2" width="250" x="400" y="65.11"/><rect fill="#388E3C" height="30" rx="5" ry="5" stroke="#388E3C" stroke-width="2" width="250" x="401.42" y="67.23"/><text fill="#fff" font-size="16" font-weight="bold" text-anchor="middle" x="524.29" y="86.52">Players</text><text font-size="14" x="420" y="117.94">PK player_id: INT</text><text font-size="14" x="422.84" y="140.82">FK team_id: INT</text><text font-size="14" x="418.58" y="162.98">first_name: VARCHAR(50)</text><text font-size="14" x="417.87" y="187.98">last_name: VARCHAR(50)</text><text font-size="14" x="420" y="211.56">age: INT</text><text font-size="14" x="420" y="236.56">jersey_number: INT</text><text font-size="14" transform="translate(0 -18.44)" x="420" y="280">position: VARCHAR(50)</text><rect fill="#FFF3E0" height="140" rx="5" ry="5" stroke="#E65100" stroke-width="2" width="250" x="50" y="320"/><rect fill="#E65100" height="30" rx="5" ry="5" stroke="#E65100" stroke-width="2" width="250" x="50" y="320"/><text fill="#fff" font-size="16" font-weight="bold" text-anchor="middle" x="175" y="340">Stadiums</text><text font-size="14" x="70" y="370">PK stadium_id: INT</text><text font-size="14" x="70" y="395">name: VARCHAR(100)</text><text font-size="14" x="70" y="420">city: VARCHAR(100)</text><text font-size="14" x="70" y="445">capacity: INT</text><rect fill="#E1F5FE" height="234.68" rx="5" ry="5" stroke="#0288D1" stroke-width="2" width="250" x="400" y="320"/><rect fill="#0288D1" height="30" rx="5" ry="5" stroke="#0288D1" stroke-width="2" width="250" x="400" y="320"/><text fill="#fff" font-size="16" font-weight="bold" text-anchor="middle" x="525" y="340">Matches</text><text font-size="14" x="420" y="370">PK match_id: INT</text><text font-size="14" x="420" y="395">date: DATE</text><text font-size="14" x="420" y="420">FK home_team_id: INT</text><text font-size="14" x="420" y="445">FK away_team_id: INT</text><text font-size="14" x="420" y="470">FK stadium_id: INT</text><text font-size="14" x="420" y="495">home_goals: INT</text><text font-size="14" x="420" y="520">away_goals: INT</text><text font-size="14" x="420" y="545">status: VARCHAR(20)</text><rect fill="#F3E5F5" height="140" rx="5" ry="5" stroke="#7B1FA2" stroke-width="2" width="250" x="720" y="320"/><rect fill="#7B1FA2" height="30" rx="5" ry="5" stroke="#7B1FA2" stroke-width="2" width="250" x="720" y="320"/><text fill="#fff" font-size="16" font-weight="bold" text-anchor="middle" x="845" y="340">Tickets</text><text font-size="14" x="740" y="370">PK ticket_id: INT</text><text font-size="14" x="740" y="395">FK match_id: INT</text><text font-size="14" x="740" y="420">category: VARCHAR(20)</text><text font-size="14" x="740" y="445">price: DECIMAL(10,2)</text><rect fill="#FFEBEE" height="185" rx="5" ry="5" stroke="#C62828" stroke-width="2" width="250" x="720" y="80"/><rect fill="#C62828" height="30" rx="5" ry="5" stroke="#C62828" stroke-width="2" width="250" x="720" y="80"/><text fill="#fff" font-size="16" font-weight="bold" text-anchor="middle" x="845" y="100">Users</text><text font-size="14" x="740" y="130">PK user_id: INT</text><text font-size="14" x="740" y="155">username: VARCHAR(50)</text><text font-size="14" x="740" y="180">password_hash: VARCHAR(255)</text><text font-size="14" x="740" y="205">role: VARCHAR(20)</text><text font-size="14" x="740" y="230">email: VARCHAR(100)</text><text font-size="14" x="740" y="255">role_id: INT</text><rect fill="#ECEFF1" height="205.81" rx="5" ry="5" stroke="#455A64" stroke-width="2" width="250" x="50" y="490"/><rect fill="#455A64" height="30" rx="5" ry="5" stroke="#455A64" stroke-width="2" width="250" x="50" y="490"/><text fill="#fff" font-size="16" font-weight="bold" text-anchor="middle" x="175" y="510">Audit_Log</text><text font-size="14" x="70" y="540">PK log_id: INT</text><text font-size="14" x="70" y="565">FK user_id: INT</text><text font-size="14" x="70" y="590">action: VARCHAR(100)</text><text font-size="14" x="70" y="615">entity_type: VARCHAR(50)</text><text font-size="14" x="70" y="640">entity_id: INT</text><text font-size="14" x="70" y="665">timestamp: TIMESTAMP</text><text font-size="14" x="70" y="690">details: TEXT</text><path d="M300 155h100M390 145l10 10-10 10" fill="none" stroke="#000" stroke-width="2"/><path d="M310 145v20M305 150v10" stroke="#000" stroke-width="2"/><path d="M175 240v40h175v140h50" fill="none" stroke="#000" stroke-width="2"/><path d="m390 410 10 10-10 10" fill="none" stroke="#000" stroke-width="2"/><path d="M165 240h20M170 235h10" stroke="#000" stroke-width="2"/><path d="M200 240v60h170v145h30" fill="none" stroke="#000" stroke-width="2"/><path d="m390 435 10 10-10 10" fill="none" stroke="#000" stroke-width="2"/><path d="M190 240h20M195 235h10" stroke="#000" stroke-width="2"/><path d="M300 390h100M390 380l10 10-10 10" fill="none" stroke="#000" stroke-width="2"/><path d="M310 380v20M305 385v10" stroke="#000" stroke-width="2"/><path d="M650 390h70M710 380l10 10-10 10" fill="none" stroke="#000" stroke-width="2"/><path d="M660 380v20M655 385v10" stroke="#000" stroke-width="2"/><path d="M720 160h-40v120H30v285h20" fill="none" stroke="#000" stroke-width="2"/><path d="m60 555-10 10 10 10" fill="none" stroke="#000" stroke-width="2"/><path d="M720 150v20M715 155v10" stroke="#000" stroke-width="2"/></g></svg>