<svg width="1400" height="900" xmlns="http://www.w3.org/2000/svg"><defs><marker id="a" markerHeight="7" markerWidth="10" orient="auto" refX="9" refY="3.5"><path fill="#333" d="m0 0 10 3.5L0 7z"/></marker></defs><g class="layer"><path fill="#f8f9fa" d="M0 0h1400v900H0z"/><text fill="#333" font-family="Arial" font-size="20" font-weight="bold" text-anchor="middle" x="700" y="30">Диаграмма бизнес-процесса формирования расписания матчей</text><path fill="none" stroke="#333" stroke-width="2" d="M50 80h1300v200H50z"/><path fill="#e3f2fd" stroke="#2196f3" d="M50 80h30v200H50z"/><text fill="#2196f3" font-family="Arial" font-size="14" font-weight="bold" text-anchor="middle" transform="rotate(-90 65 180)" x="65" y="180">Менеджер соревнований</text><path fill="none" stroke="#333" stroke-width="2" d="M50 300h1300v250H50z"/><path fill="#fff3e0" stroke="#ff9800" d="M50 300h30v250H50z"/><text fill="#ff9800" font-family="Arial" font-size="14" font-weight="bold" text-anchor="middle" transform="rotate(-90 65 425)" x="65" y="425">Система управления</text><path fill="none" stroke="#333" stroke-width="2" d="M50 570h1300v150H50z"/><path fill="#e8f5e8" stroke="#4caf50" d="M50 570h30v150H50z"/><text fill="#4caf50" font-family="Arial" font-size="14" font-weight="bold" text-anchor="middle" transform="rotate(-90 65 645)" x="65" y="645">База данных</text><circle cx="120" cy="180" fill="#c8e6c9" r="20" stroke="#4caf50" stroke-width="3"/><text fill="#333" font-family="Arial" font-size="12" font-weight="bold" text-anchor="middle" x="120" y="186">Старт</text><rect fill="#e3f2fd" height="80" rx="10" stroke="#2196f3" stroke-width="2" width="120" x="180" y="140"/><text fill="#333" font-family="Arial" font-size="11" font-weight="bold" text-anchor="middle" x="240" y="170">Инициировать</text><text fill="#333" font-family="Arial" font-size="11" font-weight="bold" text-anchor="middle" x="240" y="185">планирование</text><text fill="#333" font-family="Arial" font-size="11" font-weight="bold" text-anchor="middle" x="240" y="200">расписания</text><rect fill="#e3f2fd" height="80" rx="10" stroke="#2196f3" stroke-width="2" width="120" x="380" y="140"/><text fill="#333" font-family="Arial" font-size="11" font-weight="bold" text-anchor="middle" x="440" y="170">Выбрать</text><text fill="#333" font-family="Arial" font-size="11" font-weight="bold" text-anchor="middle" x="440" y="185">стадионы</text><rect fill="#e3f2fd" height="80" rx="10" stroke="#2196f3" stroke-width="2" width="120" x="580" y="140"/><text fill="#333" font-family="Arial" font-size="11" font-weight="bold" text-anchor="middle" x="640" y="170">Задать даты</text><text fill="#333" font-family="Arial" font-size="11" font-weight="bold" text-anchor="middle" x="640" y="185">и время матчей</text><path fill="#fff9c4" stroke="#fbc02d" stroke-width="2" d="m800 160 40 20-40 20-40-20z"/><text fill="#333" font-family="Arial" font-size="10" text-anchor="middle" x="800" y="175">Есть</text><text fill="#333" font-family="Arial" font-size="10" text-anchor="middle" x="800" y="188">конфликты?</text><rect fill="#ffebee" height="80" rx="10" stroke="#f44336" stroke-width="2" width="120" x="900" y="140"/><text fill="#333" font-family="Arial" font-size="11" font-weight="bold" text-anchor="middle" x="960" y="170">Разрешить</text><text fill="#333" font-family="Arial" font-size="11" font-weight="bold" text-anchor="middle" x="960" y="185">конфликты</text><rect fill="#e3f2fd" height="80" rx="10" stroke="#2196f3" stroke-width="2" width="120" x="1080" y="140"/><text fill="#333" font-family="Arial" font-size="11" font-weight="bold" text-anchor="middle" x="1140" y="170">Утвердить</text><text fill="#333" font-family="Arial" font-size="11" font-weight="bold" text-anchor="middle" x="1140" y="185">расписание</text><rect fill="#fff3e0" height="80" rx="10" stroke="#ff9800" stroke-width="2" width="120" x="280" y="360"/><text fill="#333" font-family="Arial" font-size="11" font-weight="bold" text-anchor="middle" x="340" y="390">Получить список</text><text fill="#333" font-family="Arial" font-size="11" font-weight="bold" text-anchor="middle" x="340" y="405">команд</text><rect fill="#fff3e0" height="80" rx="10" stroke="#ff9800" stroke-width="2" width="120" x="480" y="360"/><text fill="#333" font-family="Arial" font-size="11" font-weight="bold" text-anchor="middle" x="540" y="390">Сформировать</text><text fill="#333" font-family="Arial" font-size="11" font-weight="bold" text-anchor="middle" x="540" y="405">пары команд</text><rect fill="#fff3e0" height="80" rx="10" stroke="#ff9800" stroke-width="2" width="120" x="680" y="360"/><text fill="#333" font-family="Arial" font-size="11" font-weight="bold" text-anchor="middle" x="740" y="390">Проверить</text><text fill="#333" font-family="Arial" font-size="11" font-weight="bold" text-anchor="middle" x="740" y="405">конфликты</text><rect fill="#fff3e0" height="80" rx="10" stroke="#ff9800" stroke-width="2" width="120" x="1080" y="360"/><text fill="#333" font-family="Arial" font-size="11" font-weight="bold" text-anchor="middle" x="1140" y="390">Уведомить</text><text fill="#333" font-family="Arial" font-size="11" font-weight="bold" text-anchor="middle" x="1140" y="405">команды</text><rect fill="#e8f5e8" height="80" rx="10" stroke="#4caf50" stroke-width="2" width="120" x="1080" y="590"/><text fill="#333" font-family="Arial" font-size="11" font-weight="bold" text-anchor="middle" x="1140" y="620">Сохранить</text><text fill="#333" font-family="Arial" font-size="11" font-weight="bold" text-anchor="middle" x="1140" y="635">расписание</text><circle cx="1140" cy="750" fill="#ffcdd2" r="20" stroke="#f44336" stroke-width="3"/><circle cx="1140" cy="750" fill="#f44336" r="16"/><text fill="#333" font-family="Arial" font-size="11" text-anchor="middle" x="1140" y="780">Расписание готово</text><path marker-end="url(#a)" stroke="#333" stroke-width="2" d="M140 180h40"/><path marker-end="url(#a)" stroke="#333" stroke-width="2" d="M300 180h80"/><path marker-end="url(#a)" stroke="#333" stroke-width="2" d="M500 180h80"/><path marker-end="url(#a)" stroke="#333" stroke-width="2" d="M700 180h60"/><path marker-end="url(#a)" stroke="#333" stroke-width="2" d="M840 180h60"/><text fill="#f44336" font-family="Arial" font-size="10" text-anchor="middle" x="870" y="170">Да</text><path d="M960 140q0-40-320-40v40" fill="none" marker-end="url(#a)" stroke="#333" stroke-width="2"/><path stroke="#333" stroke-width="2" d="M800 160v-40M800 120h340"/><path marker-end="url(#a)" stroke="#333" stroke-width="2" d="M1140 120v20"/><text fill="#4caf50" font-family="Arial" font-size="10" text-anchor="middle" x="970" y="115">Нет</text><path d="M240 220q0 70 100 70v70" fill="none" marker-end="url(#a)" stroke="#666" stroke-width="2"/><path marker-end="url(#a)" stroke="#333" stroke-width="2" d="M400 400h80"/><path marker-end="url(#a)" stroke="#333" stroke-width="2" d="M600 400h80"/><path d="M740 360q0-70 60-70v-90" fill="none" marker-end="url(#a)" stroke="#666" stroke-width="2"/><path d="M1140 220v140" fill="none" marker-end="url(#a)" stroke="#666" stroke-width="2"/><path d="M1140 440v150" fill="none" marker-end="url(#a)" stroke="#666" stroke-width="2"/><path marker-end="url(#a)" stroke="#333" stroke-width="2" d="M1140 670v60"/><g transform="translate(80 750)"><rect fill="#fff" height="120" rx="5" stroke="#ccc" width="300"/><text fill="#333" font-family="Arial" font-size="12" font-weight="bold" x="10" y="20">Легенда элементов:</text><circle cx="20" cy="35" fill="#c8e6c9" r="8" stroke="#4caf50" stroke-width="2"/><text fill="#333" font-family="Arial" font-size="10" x="35" y="40">Событие начала/завершения</text><rect fill="#e3f2fd" height="10" rx="2" stroke="#2196f3" width="16" x="12" y="50"/><text fill="#333" font-family="Arial" font-size="10" x="35" y="59">Задача пользователя</text><rect fill="#fff3e0" height="10" rx="2" stroke="#ff9800" width="16" x="12" y="70"/><text fill="#333" font-family="Arial" font-size="10" x="35" y="79">Системная задача</text><path fill="#fff9c4" stroke="#fbc02d" d="m16 85 8 5-8 5-8-5z"/><text fill="#333" font-family="Arial" font-size="10" x="35" y="94">Условие (шлюз)</text><path marker-end="url(#a)" stroke="#333" stroke-width="2" d="M160 40h20"/><text fill="#333" font-family="Arial" font-size="10" x="190" y="45">Поток выполнения</text><path stroke="#666" stroke-dasharray="5,5" d="M160 60h20"/><text fill="#333" font-family="Arial" font-size="10" x="190" y="65">Взаимодействие между пулами</text></g></g></svg>