<svg width="1200" height="800" xmlns="http://www.w3.org/2000/svg" xmlns:svg="http://www.w3.org/2000/svg">
 <!-- Определения -->
 <defs>
  <marker id="arrowhead" markerHeight="7" markerWidth="10" orient="auto" refX="0" refY="3.5">
   <polygon fill="black" id="svg_1" points="0 0, 10 3.5, 0 7"/>
  </marker>
 </defs>
 <!-- Актеры в треугольнике -->
 <!-- Гость (вверху) -->
 <!-- Менеджер соревнований (левый нижний) -->
 <!-- Администратор (правый нижний) -->
 <!-- Use Cases для Гостя (сверху) -->
 <!-- Use Cases для Менеджера и Администратора (общие, по центру) -->
 <!-- Use Cases только для Администратора (справа) -->
 <!-- Use Cases только для Менеджера (слева) -->
 <!-- Стрелки от Гостя (к функциям сверху) -->
 <!-- Стрелки от Менеджера (к общим функциям и своим) -->
 <!-- К своим функциям -->
 <!-- К общим функциям -->
 <!-- Стрелки от Администратора (к общим функциям и своим) -->
 <!-- К своим функциям -->
 <!-- К общим функциям -->
 <!-- Заголовок -->
 <g class="layer">
  <title>Layer 1</title>
  <g id="guest" transform="translate(1 -23)">
   <line id="svg_2" stroke="black" stroke-width="2" x1="600" x2="600" y1="80" y2="130"/>
   <circle cx="600" cy="70" fill="none" id="svg_3" r="10" stroke="black" stroke-width="2"/>
   <line id="svg_4" stroke="black" stroke-width="2" x1="580" x2="620" y1="100" y2="100"/>
   <line id="svg_5" stroke="black" stroke-width="2" x1="600" x2="580" y1="130" y2="160"/>
   <line id="svg_6" stroke="black" stroke-width="2" x1="600" x2="620" y1="130" y2="160"/>
   <text font-family="Arial" font-size="12" id="svg_7" text-anchor="middle" x="600" y="180">Гость</text>
  </g>
  <g id="manager" transform="translate(35 -69) translate(-29 52)">
   <line id="svg_8" stroke="black" stroke-width="2" x1="300" x2="300" y1="380" y2="430"/>
   <circle cx="300" cy="370" fill="none" id="svg_9" r="10" stroke="black" stroke-width="2"/>
   <line id="svg_10" stroke="black" stroke-width="2" x1="280" x2="320" y1="400" y2="400"/>
   <line id="svg_11" stroke="black" stroke-width="2" x1="300" x2="280" y1="430" y2="460"/>
   <line id="svg_12" stroke="black" stroke-width="2" x1="300" x2="320" y1="430" y2="460"/>
   <text font-family="Arial" font-size="12" id="svg_13" text-anchor="middle" x="300" y="480">Менеджер</text>
  </g>
  <g id="admin">
   <line id="svg_14" stroke="black" stroke-width="2" x1="900" x2="900" y1="380" y2="430"/>
   <circle cx="900" cy="370" fill="none" id="svg_15" r="10" stroke="black" stroke-width="2"/>
   <line id="svg_16" stroke="black" stroke-width="2" x1="880" x2="920" y1="400" y2="400"/>
   <line id="svg_17" stroke="black" stroke-width="2" x1="900" x2="880" y1="430" y2="460"/>
   <line id="svg_18" stroke="black" stroke-width="2" x1="900" x2="920" y1="430" y2="460"/>
   <text font-family="Arial" font-size="12" id="svg_19" text-anchor="middle" x="900" y="480">Администратор</text>
  </g>
  <ellipse cx="603" cy="229" fill="white" id="svg_20" rx="80" ry="25" stroke="black" stroke-width="2" transform="matrix(1 0 0 1 0 0)"/>
  <text font-family="Arial" font-size="10" id="svg_21" text-anchor="middle" x="600" y="232">Просмотр расписания</text>
  <ellipse cx="450" cy="211" fill="white" id="svg_22" rx="80" ry="25" stroke="black" stroke-width="2" transform="matrix(1 0 0 1 0 0)"/>
  <text font-family="Arial" font-size="10" id="svg_23" text-anchor="middle" x="446" y="212">Просмотр результатов</text>
  <ellipse cx="771" cy="222" fill="white" id="svg_24" rx="80" ry="25" stroke="black" stroke-width="2"/>
  <text font-family="Arial" font-size="10" id="svg_25" text-anchor="middle" x="774" y="217">Просмотр турнирной</text>
  <text font-family="Arial" font-size="10" id="svg_26" text-anchor="middle" x="777" y="228">таблицы</text>
  <ellipse cx="576" cy="352" fill="white" id="svg_27" rx="80" ry="25" stroke="black" stroke-width="2"/>
  <text font-family="Arial" font-size="10" id="svg_28" text-anchor="middle" x="574" y="345">Управление</text>
  <text font-family="Arial" font-size="10" id="svg_29" text-anchor="middle" x="574" y="363">командами</text>
  <ellipse cx="773" cy="296" fill="white" id="svg_30" rx="80" ry="25" stroke="black" stroke-width="2"/>
  <text font-family="Arial" font-size="10" id="svg_31" text-anchor="middle" x="767" y="289">Управление</text>
  <text font-family="Arial" font-size="10" id="svg_32" text-anchor="middle" x="768" y="306">игроками</text>
  <ellipse cx="480" cy="287" fill="white" id="svg_33" rx="80" ry="25" stroke="black" stroke-width="2" transform="matrix(1 0 0 1 0 0)"/>
  <text font-family="Arial" font-size="10" id="svg_34" text-anchor="middle" transform="matrix(1 0 0 1 0 0)" x="479" y="283">Управление</text>
  <text font-family="Arial" font-size="10" id="svg_35" text-anchor="middle" x="483" y="299">стадионами</text>
  <ellipse cx="433" cy="399" fill="white" id="svg_36" rx="80" ry="25" stroke="black" stroke-width="2" transform="matrix(1 0 0 1 0 0)"/>
  <text font-family="Arial" font-size="10" id="svg_37" text-anchor="middle" transform="matrix(1 0 0 1 0 0)" x="434" y="392">Формирование</text>
  <text font-family="Arial" font-size="10" id="svg_38" text-anchor="middle" x="433" y="406">расписания</text>
  <ellipse cx="694" cy="383.5" fill="white" id="svg_39" rx="50" ry="20.5" stroke="black" stroke-width="2" transform="matrix(1 0 0 1 0 0)"/>
  <text font-family="Arial" font-size="10" id="svg_40" text-anchor="middle" transform="matrix(1 0 0 1 0 0)" x="694" y="380">Внесение</text>
  <text font-family="Arial" font-size="10" id="svg_41" text-anchor="middle" x="693" y="391">результатов</text>
  <ellipse cx="606" cy="449.5" fill="white" id="svg_42" rx="71" ry="21.5" stroke="black" stroke-width="2"/>
  <text font-family="Arial" font-size="10" id="svg_43" text-anchor="middle" x="600" y="450">Расчет стоимости</text>
  <text font-family="Arial" font-size="10" id="svg_44" text-anchor="middle" x="600" y="462">билетов</text>
  <ellipse cx="502" cy="528" fill="white" id="svg_45" rx="80" ry="25" stroke="black" stroke-width="2"/>
  <text font-family="Arial" font-size="10" id="svg_46" text-anchor="middle" x="496" y="522">Формирование</text>
  <text font-family="Arial" font-size="10" id="svg_47" text-anchor="middle" x="496" y="538">отчетов</text>
  <ellipse cx="703" cy="530" fill="white" id="svg_48" rx="80" ry="25" stroke="black" stroke-width="2" transform="matrix(1 0 0 1 0 0)"/>
  <text font-family="Arial" font-size="10" id="svg_49" text-anchor="middle" x="697" y="524">Просмотр</text>
  <text font-family="Arial" font-size="10" id="svg_50" text-anchor="middle" x="697" y="536">аналитики</text>
  <ellipse cx="1003" cy="264" fill="white" id="svg_51" rx="80" ry="25" stroke="black" stroke-width="2" transform="matrix(1 0 0 1 0 0)"/>
  <text font-family="Arial" font-size="10" id="svg_52" text-anchor="middle" x="1000" y="257">Управление</text>
  <text font-family="Arial" font-size="10" id="svg_53" text-anchor="middle" transform="matrix(1 0 0 1 0 0)" x="1002" y="275">пользователями</text>
  <ellipse cx="1066" cy="329" fill="white" id="svg_54" rx="80" ry="25" stroke="black" stroke-width="2" transform="matrix(1 0 0 1 0 0)"/>
  <text font-family="Arial" font-size="10" id="svg_55" text-anchor="middle" transform="matrix(1 0 0 1 0 0)" x="1062" y="324">Редактирование</text>
  <text font-family="Arial" font-size="10" id="svg_56" text-anchor="middle" x="1058" y="340">конфигурации</text>
  <ellipse cx="1068" cy="401" fill="white" id="svg_57" rx="80" ry="25" stroke="black" stroke-width="2" transform="matrix(1 0 0 1 0 0)"/>
  <text font-family="Arial" font-size="10" id="svg_58" text-anchor="middle" transform="matrix(1 0 0 1 0 0)" x="1064" y="395">Просмотр</text>
  <text font-family="Arial" font-size="10" id="svg_59" text-anchor="middle" x="1063" y="412">логов системы</text>
  <ellipse cx="1026" cy="482" fill="white" id="svg_60" rx="80" ry="25" stroke="black" stroke-width="2" transform="matrix(1 0 0 1 0 0)"/>
  <text font-family="Arial" font-size="10" id="svg_61" text-anchor="middle" transform="matrix(1 0 0 1 0 0)" x="1024" y="475">Управление доступом</text>
  <text font-family="Arial" font-size="10" id="svg_62" text-anchor="middle" transform="matrix(1 0 0 1 0 0)" x="1021" y="487">и ролями</text>
  <ellipse cx="200" cy="300" fill="white" id="svg_63" rx="80" ry="25" stroke="black" stroke-width="2"/>
  <text font-family="Arial" font-size="10" id="svg_64" text-anchor="middle" transform="matrix(1 0 0 1 0 0)" x="201" y="295">Планирование</text>
  <text font-family="Arial" font-size="10" id="svg_65" text-anchor="middle" x="198" y="308">турнира</text>
  <ellipse cx="201" cy="353" fill="white" id="svg_66" rx="80" ry="25" stroke="black" stroke-width="2" transform="matrix(1 0 0 1 0 0)"/>
  <text font-family="Arial" font-size="10" id="svg_67" text-anchor="middle" transform="matrix(1 0 0 1 0 0)" x="200" y="345">Контроль</text>
  <text font-family="Arial" font-size="10" id="svg_68" text-anchor="middle" x="200" y="357">проведения игр</text>
  <line id="svg_69" marker-end="url(#arrowhead)" stroke="black" transform="matrix(1 0 0 1 0 0)" x1="600" x2="600" y1="161" y2="192"/>
  <line id="svg_70" marker-end="url(#arrowhead)" stroke="black" transform="matrix(1 0 0 1 0 0)" x1="571" x2="468" y1="136" y2="178"/>
  <line id="svg_71" marker-end="url(#arrowhead)" stroke="black" transform="matrix(1 0 0 1 0 0)" x1="630" x2="710" y1="137" y2="195"/>
  <line id="svg_72" marker-end="url(#arrowhead)" stroke="black" x1="295" x2="267" y1="354" y2="313"/>
  <line id="svg_73" marker-end="url(#arrowhead)" stroke="black" x1="283" x2="253" y1="395" y2="365"/>
  <line id="svg_74" marker-end="url(#arrowhead)" stroke="black" x1="340" x2="485" y1="380" y2="354"/>
  <line id="svg_75" marker-end="url(#arrowhead)" stroke="black" x1="350" x2="424" y1="370" y2="295"/>
  <line id="svg_76" marker-end="url(#arrowhead)" stroke="black" x1="360" x2="686" y1="360" y2="298"/>
  <line id="svg_77" marker-end="url(#arrowhead)" stroke="black" transform="matrix(1 0 0 1 0 0)" x1="322" x2="344" y1="400" y2="400"/>
  <line id="svg_78" marker-end="url(#arrowhead)" stroke="black" x1="340" x2="541" y1="420" y2="447"/>
  <line id="svg_79" marker-end="url(#arrowhead)" stroke="black" x1="350" x2="460" y1="440" y2="500"/>
  <line id="svg_80" marker-end="url(#arrowhead)" stroke="black" x1="360" x2="640" y1="450" y2="500"/>
  <line id="svg_81" marker-end="url(#arrowhead)" stroke="black" x1="370" x2="639" y1="430" y2="389"/>
  <line id="svg_82" marker-end="url(#arrowhead)" stroke="black" x1="920" x2="970" y1="360" y2="310"/>
  <line id="svg_83" marker-end="url(#arrowhead)" stroke="black" x1="920" x2="970" y1="380" y2="350"/>
  <line id="svg_84" marker-end="url(#arrowhead)" stroke="black" x1="920" x2="970" y1="400" y2="400"/>
  <line id="svg_85" marker-end="url(#arrowhead)" stroke="black" x1="920" x2="970" y1="420" y2="450"/>
  <line id="svg_86" marker-end="url(#arrowhead)" stroke="black" x1="883" x2="838" y1="370" y2="321"/>
  <line id="svg_87" marker-end="url(#arrowhead)" stroke="black" x1="872" x2="548" y1="383" y2="287"/>
  <line id="svg_88" marker-end="url(#arrowhead)" stroke="black" x1="871" x2="667" y1="395" y2="353"/>
  <line id="svg_89" marker-end="url(#arrowhead)" stroke="black" transform="rotate(5.71059 804.505 398.951)" x1="870.05" x2="738.96" y1="398.95" y2="398.95"/>
  <line id="svg_90" marker-end="url(#arrowhead)" stroke="black" x1="860" x2="670" y1="420" y2="448"/>
  <line id="svg_91" marker-end="url(#arrowhead)" stroke="black" x1="850" x2="740" y1="440" y2="500"/>
  <line id="svg_92" marker-end="url(#arrowhead)" stroke="black" x1="840" x2="540" y1="450" y2="500"/>
  <line id="svg_93" marker-end="url(#arrowhead)" stroke="black" x1="885" x2="515" y1="428" y2="396"/>
  <text font-family="Arial" font-size="16" font-weight="bold" id="svg_94" text-anchor="middle" x="600" y="30">Use-Case диаграмма системы управления футбольными соревнованиями</text>
 </g>
</svg>