<svg width="1200" height="800" xmlns="http://www.w3.org/2000/svg" xmlns:svg="http://www.w3.org/2000/svg">
 <!-- Определения -->
 <defs>
  <marker id="arrowhead" markerHeight="7" markerWidth="10" orient="auto" refX="0" refY="3.5">
   <polygon fill="black" id="svg_1" points="0 0, 10 3.5, 0 7"/>
  </marker>
 </defs>
 <!-- Актеры в треугольнике -->
 <!-- Гость (вверху) -->
 <!-- Менеджер соревнований (левый нижний) -->
 <!-- Администратор (правый нижний) -->
 <!-- Use Cases для Гостя (сверху) -->
 <!-- Use Cases для Менеджера и Администратора (общие, по центру) -->
 <!-- Use Cases только для Администратора (справа) -->
 <!-- Use Cases только для Менеджера (слева) -->
 <!-- Стрелки от Гостя (к функциям сверху) -->
 <!-- Стрелки от Менеджера (к общим функциям и своим) -->
 <!-- К своим функциям -->
 <!-- К общим функциям -->
 <!-- Стрелки от Администратора (к общим функциям и своим) -->
 <!-- К своим функциям -->
 <!-- К общим функциям -->
 <!-- Заголовок -->
 <g class="layer">
  <title>Layer 1</title>
  <g id="guest" transform="translate(1 -23)">
   <line id="svg_2" stroke="black" stroke-width="2" x1="600" x2="600" y1="80" y2="130"/>
   <circle cx="600" cy="70" fill="none" id="svg_3" r="10" stroke="black" stroke-width="2"/>
   <line id="svg_4" stroke="black" stroke-width="2" x1="580" x2="620" y1="100" y2="100"/>
   <line id="svg_5" stroke="black" stroke-width="2" x1="600" x2="580" y1="130" y2="160"/>
   <line id="svg_6" stroke="black" stroke-width="2" x1="600" x2="620" y1="130" y2="160"/>
   <text font-family="Arial" font-size="12" id="svg_7" text-anchor="middle" x="600" y="180">Гость</text>
  </g>
  <g id="manager" transform="translate(35 -69) translate(-29 52)">
   <line id="svg_8" stroke="black" stroke-width="2" x1="300" x2="300" y1="380" y2="430"/>
   <circle cx="300" cy="370" fill="none" id="svg_9" r="10" stroke="black" stroke-width="2"/>
   <line id="svg_10" stroke="black" stroke-width="2" x1="280" x2="320" y1="400" y2="400"/>
   <line id="svg_11" stroke="black" stroke-width="2" x1="300" x2="280" y1="430" y2="460"/>
   <line id="svg_12" stroke="black" stroke-width="2" x1="300" x2="320" y1="430" y2="460"/>
   <text font-family="Arial" font-size="12" id="svg_13" text-anchor="middle" x="300" y="480">Менеджер</text>
  </g>
  <g id="admin">
   <line id="svg_14" stroke="black" stroke-width="2" x1="900" x2="900" y1="380" y2="430"/>
   <circle cx="900" cy="370" fill="none" id="svg_15" r="10" stroke="black" stroke-width="2"/>
   <line id="svg_16" stroke="black" stroke-width="2" x1="880" x2="920" y1="400" y2="400"/>
   <line id="svg_17" stroke="black" stroke-width="2" x1="900" x2="880" y1="430" y2="460"/>
   <line id="svg_18" stroke="black" stroke-width="2" x1="900" x2="920" y1="430" y2="460"/>
   <text font-family="Arial" font-size="12" id="svg_19" text-anchor="middle" x="900" y="480">Администратор</text>
  </g>
  <ellipse cx="603" cy="213" fill="white" id="svg_20" rx="80" ry="25" stroke="black" stroke-width="2"/>
  <text font-family="Arial" font-size="10" id="svg_21" text-anchor="middle" x="600" y="216">Просмотр расписания</text>
  <ellipse cx="397" cy="149" fill="white" id="svg_22" rx="80" ry="25" stroke="black" stroke-width="2"/>
  <text font-family="Arial" font-size="10" id="svg_23" text-anchor="middle" x="393" y="150">Просмотр результатов</text>
  <ellipse cx="797" cy="146" fill="white" id="svg_24" rx="80" ry="25" stroke="black" stroke-width="2"/>
  <text font-family="Arial" font-size="10" id="svg_25" text-anchor="middle" x="800" y="141">Просмотр турнирной</text>
  <text font-family="Arial" font-size="10" id="svg_26" text-anchor="middle" x="803" y="152">таблицы</text>
  <ellipse cx="620.5" cy="405" fill="white" id="svg_27" rx="80" ry="25" stroke="black" stroke-width="2"/>
  <text font-family="Arial" font-size="10" id="svg_28" text-anchor="middle" x="618.5" y="402.5">Управление</text>
  <text font-family="Arial" font-size="10" id="svg_29" text-anchor="middle" transform="matrix(1 0 0 1 0 0)" x="618" y="419">командами</text>
  <ellipse cx="634.5" cy="347.5" fill="white" id="svg_30" rx="80" ry="25" stroke="black" stroke-width="2"/>
  <text font-family="Arial" font-size="10" id="svg_31" text-anchor="middle" x="628.5" y="340.5">Управление</text>
  <text font-family="Arial" font-size="10" id="svg_32" text-anchor="middle" x="629.5" y="357.5">игроками</text>
  <ellipse cx="630" cy="294.5" fill="white" id="svg_33" rx="80" ry="25" stroke="black" stroke-width="2"/>
  <text font-family="Arial" font-size="10" id="svg_34" text-anchor="middle" x="629" y="290.5">Управление</text>
  <text font-family="Arial" font-size="10" id="svg_35" text-anchor="middle" x="633" y="306.5">стадионами</text>
  <ellipse cx="615" cy="461" fill="white" id="svg_36" rx="80" ry="25" stroke="black" stroke-width="2"/>
  <text font-family="Arial" font-size="10" id="svg_37" text-anchor="middle" x="617" y="457">Формирование</text>
  <text font-family="Arial" font-size="10" id="svg_38" text-anchor="middle" x="616" y="471">расписания</text>
  <ellipse cx="612.5" cy="515" fill="white" id="svg_39" rx="74.5" ry="23" stroke="black" stroke-width="2"/>
  <text font-family="Arial" font-size="10" id="svg_40" text-anchor="middle" x="614" y="512">Внесение</text>
  <text font-family="Arial" font-size="10" id="svg_41" text-anchor="middle" transform="matrix(1 0 0 1 0 0)" x="612" y="523">результатов</text>
  <ellipse cx="611" cy="564.5" fill="white" id="svg_42" rx="79" ry="22.5" stroke="black" stroke-width="2"/>
  <text font-family="Arial" font-size="10" id="svg_43" text-anchor="middle" x="616" y="562">Расчет стоимости</text>
  <text font-family="Arial" font-size="10" id="svg_44" text-anchor="middle" x="616" y="574">билетов</text>
  <ellipse cx="611" cy="619" fill="white" id="svg_45" rx="80" ry="25" stroke="black" stroke-width="2"/>
  <text font-family="Arial" font-size="10" id="svg_46" text-anchor="middle" x="615" y="613">Формирование</text>
  <text font-family="Arial" font-size="10" id="svg_47" text-anchor="middle" x="611" y="631">отчетов</text>
  <ellipse cx="613.5" cy="675" fill="white" id="svg_48" rx="80" ry="25" stroke="black" stroke-width="2" transform="matrix(1 0 0 1 0 0)"/>
  <text font-family="Arial" font-size="10" id="svg_49" text-anchor="middle" transform="matrix(1 0 0 1 0 0)" x="609.5" y="670.5">Просмотр</text>
  <text font-family="Arial" font-size="10" id="svg_50" text-anchor="middle" x="610.5" y="683">аналитики</text>
  <ellipse cx="1040" cy="260" fill="white" id="svg_51" rx="80" ry="25" stroke="black" stroke-width="2"/>
  <text font-family="Arial" font-size="10" id="svg_52" text-anchor="middle" x="1037" y="253">Управление</text>
  <text font-family="Arial" font-size="10" id="svg_53" text-anchor="middle" x="1039" y="271">пользователями</text>
  <ellipse cx="1103" cy="325" fill="white" id="svg_54" rx="80" ry="25" stroke="black" stroke-width="2"/>
  <text font-family="Arial" font-size="10" id="svg_55" text-anchor="middle" x="1099" y="320">Редактирование</text>
  <text font-family="Arial" font-size="10" id="svg_56" text-anchor="middle" x="1095" y="336">конфигурации</text>
  <ellipse cx="1105" cy="397" fill="white" id="svg_57" rx="80" ry="25" stroke="black" stroke-width="2"/>
  <text font-family="Arial" font-size="10" id="svg_58" text-anchor="middle" x="1101" y="391">Просмотр</text>
  <text font-family="Arial" font-size="10" id="svg_59" text-anchor="middle" x="1100" y="408">логов системы</text>
  <ellipse cx="1064" cy="473" fill="white" id="svg_60" rx="80" ry="25" stroke="black" stroke-width="2"/>
  <text font-family="Arial" font-size="10" id="svg_61" text-anchor="middle" x="1061" y="471">Управление доступом</text>
  <text font-family="Arial" font-size="10" id="svg_62" text-anchor="middle" x="1067" y="485">и ролями</text>
  <ellipse cx="154" cy="309" fill="white" id="svg_63" rx="80" ry="25" stroke="black" stroke-width="2"/>
  <text font-family="Arial" font-size="10" id="svg_64" text-anchor="middle" x="155" y="304">Планирование</text>
  <text font-family="Arial" font-size="10" id="svg_65" text-anchor="middle" x="152" y="317">турнира</text>
  <ellipse cx="149" cy="381" fill="white" id="svg_66" rx="80" ry="25" stroke="black" stroke-width="2"/>
  <text font-family="Arial" font-size="10" id="svg_67" text-anchor="middle" x="149" y="379">Контроль</text>
  <text font-family="Arial" font-size="10" id="svg_68" text-anchor="middle" transform="matrix(1 0 0 1 0 0)" x="149" y="392">проведения игр</text>
  <line id="svg_69" marker-end="url(#arrowhead)" stroke="black" x1="600" x2="600" y1="161" y2="177"/>
  <line id="svg_70" marker-end="url(#arrowhead)" stroke="black" x1="584" x2="484" y1="116" y2="135"/>
  <line id="svg_71" marker-end="url(#arrowhead)" stroke="black" x1="620" x2="710" y1="117" y2="136"/>
  <line id="svg_72" marker-end="url(#arrowhead)" stroke="black" x1="291.16" x2="245.16" y1="351.89" y2="324.89"/>
  <line id="svg_77" marker-end="url(#arrowhead)" stroke="black" x1="337" x2="542" y1="441.36" y2="302.78"/>
  <line id="svg_89" marker-end="url(#arrowhead)" stroke="black" x1="854.32" x2="712.53" y1="460.31" y2="295.42"/>
  <line id="svg_73" marker-end="url(#arrowhead)" stroke="black" x1="293" x2="245" y1="402" y2="387"/>
  <line id="svg_74" marker-end="url(#arrowhead)" stroke="black" x1="340" x2="522" y1="443" y2="450.5"/>
  <line id="svg_75" marker-end="url(#arrowhead)" stroke="black" x1="337" x2="548" y1="440.5" y2="356.5"/>
  <line id="svg_76" marker-end="url(#arrowhead)" stroke="black" x1="341" x2="533" y1="440.5" y2="402.5"/>
  <line id="svg_78" marker-end="url(#arrowhead)" stroke="black" x1="337" x2="530" y1="443" y2="552"/>
  <line id="svg_79" marker-end="url(#arrowhead)" stroke="black" x1="341" x2="531" y1="448" y2="608"/>
  <line id="svg_80" marker-end="url(#arrowhead)" stroke="black" x1="335.5" x2="529.5" y1="460" y2="663"/>
  <line id="svg_81" marker-end="url(#arrowhead)" stroke="black" x1="337" x2="534" y1="444" y2="510"/>
  <line id="svg_82" marker-end="url(#arrowhead)" stroke="black" x1="920" x2="970" y1="360" y2="310"/>
  <line id="svg_83" marker-end="url(#arrowhead)" stroke="black" x1="945" x2="1011" y1="383" y2="338"/>
  <line id="svg_84" marker-end="url(#arrowhead)" stroke="black" x1="938" x2="1008" y1="397" y2="397"/>
  <line id="svg_85" marker-end="url(#arrowhead)" stroke="black" x1="920" x2="985" y1="420" y2="453"/>
  <line id="svg_86" marker-end="url(#arrowhead)" stroke="black" x1="853.5" x2="717.5" y1="459.5" y2="362.5"/>
  <line id="svg_87" marker-end="url(#arrowhead)" stroke="black" x1="851.5" x2="709" y1="460.5" y2="403"/>
  <line id="svg_88" marker-end="url(#arrowhead)" stroke="black" x1="850.5" x2="699" y1="459.5" y2="453.5"/>
  <line id="svg_90" marker-end="url(#arrowhead)" stroke="black" x1="853" x2="692" y1="459" y2="546"/>
  <line id="svg_91" marker-end="url(#arrowhead)" stroke="black" x1="853" x2="698" y1="460" y2="661.5"/>
  <line id="svg_92" marker-end="url(#arrowhead)" stroke="black" x1="849" x2="684" y1="462" y2="599"/>
  <line id="svg_93" marker-end="url(#arrowhead)" stroke="black" x1="846" x2="692" y1="463" y2="510"/>
  <text font-family="Arial" font-size="16" font-weight="bold" id="svg_94" text-anchor="middle" x="600" y="30">Use-Case диаграмма системы управления футбольными соревнованиями</text>
 </g>
</svg>