<svg width="1000" height="600" xmlns="http://www.w3.org/2000/svg"><defs><marker id="arrow" markerHeight="7" markerWidth="10" orient="auto" refX="9" refY="3.5"><path fill="#34495e" id="svg_1" d="m0 0 10 3.5L0 7z"/></marker><style>.process-text{font:11px Arial;text-anchor:middle;fill:#2c3e50}.swimlane-title{font:700 12px Arial;fill:#6c757d}.condition-text{font:10px Arial;text-anchor:middle;fill:#2c3e50}.branch-label{font:700 11px Arial;text-anchor:middle}</style></defs><g class="layer"><text id="svg_2" x="500" y="25" style="font:700 16px Arial;text-anchor:middle;fill:#2c3e50">Диаграмма процессов: Внесение результатов матча</text><path fill="#f8f9fa" id="svg_3" stroke="#6c757d" d="M50 50h900v180H50z"/><text class="swimlane-title" id="svg_4" x="60" y="70">МЕНЕДЖЕР СОРЕВНОВАНИЙ</text><path fill="#fff3e0" id="svg_5" stroke="#6c757d" d="M52.11 230h900v180h-900z"/><text class="swimlane-title" id="svg_6" x="60" y="250">СИСТЕМА</text><path fill="#e8f5e8" id="svg_7" stroke="#6c757d" d="M55.26 410h900v180h-900z"/><text class="swimlane-title" id="svg_8" x="60" y="430">БАЗА ДАННЫХ</text><circle cx="100" cy="140" fill="#2ecc71" id="svg_9" r="15" stroke="#27ae60" stroke-width="3"/><text class="process-text" id="svg_10" x="100" y="175">Начало</text><path id="svg_11" marker-end="url(#arrow)" stroke="#34495e" stroke-width="2" d="M115 140h60"/><rect fill="#e3f2fd" height="60" id="svg_12" rx="10" stroke="#2196f3" stroke-width="2" width="120" x="180" y="110"/><text class="process-text" id="svg_13" x="240" y="130">Выбрать</text><text class="process-text" id="svg_14" x="240" y="145">завершенный</text><text class="process-text" id="svg_15" x="240" y="160">матч</text><path id="svg_16" marker-end="url(#arrow)" stroke="#34495e" stroke-width="2" d="M240 170v40"/><path id="svg_17" marker-end="url(#arrow)" stroke="#34495e" stroke-width="2" d="M240 210v65.79"/><rect fill="#fff3e0" height="60" id="svg_18" rx="10" stroke="#ff9800" stroke-width="2" width="120" x="180" y="280"/><text class="process-text" id="svg_19" x="240" y="300">Загрузить</text><text class="process-text" id="svg_20" x="240" y="315">информацию</text><text class="process-text" id="svg_21" x="240" y="330">о матче</text><path id="svg_22" marker-end="url(#arrow)" stroke="#34495e" stroke-width="2" d="M240 340v40"/><path id="svg_23" marker-end="url(#arrow)" stroke="#34495e" stroke-width="2" d="M240 380v70"/><rect fill="#e8f5e8" height="60" id="svg_24" rx="10" stroke="#27ae60" stroke-width="2" width="120" x="180" y="460"/><text class="process-text" id="svg_25" x="240" y="480">Получить</text><text class="process-text" id="svg_26" x="240" y="495">данные</text><text class="process-text" id="svg_27" x="240" y="510">матча</text><path id="svg_28" marker-end="url(#arrow)" stroke="#34495e" stroke-width="2" d="M300 490h40"/><path id="svg_29" marker-end="url(#arrow)" stroke="#34495e" stroke-width="2" transform="rotate(14 348.421 433.421)" d="M348.42 491.05V375.79"/><path fill="#ffeaa7" id="svg_30" stroke="#f39c12" stroke-width="2" d="m365.263 320.526 50 30-50 30-50-30z"/><text class="condition-text" font-size="10" id="svg_31" x="364.21" y="344.47">Матч</text><text class="condition-text" font-size="10" id="svg_32" x="367.37" y="358.42">завершен?</text><path id="svg_33" marker-end="url(#arrow)" stroke="#34495e" stroke-width="2" d="M365.26 318.42v-40"/><text class="branch-label" fill="#e74c3c" font-size="11" id="svg_34" x="338.42" y="305.79">НЕТ</text><rect fill="#ffebee" height="40" id="svg_35" rx="10" stroke="#f44336" stroke-width="2" width="120" x="303.16" y="238.42"/><text class="process-text" font-size="11" id="svg_36" x="360" y="252.37">Сообщение:</text><text class="process-text" font-size="11" id="svg_37" x="366.32" y="268.42">&quot;Матч не завершен&quot;</text><path id="svg_39" marker-end="url(#arrow)" stroke="#34495e" stroke-width="2" d="M400 234.74V140"/><circle cx="475.26" cy="135.26" fill="#e74c3c" id="svg_40" r="18.68" stroke="#c0392b" stroke-width="3"/><text class="process-text" font-size="11" id="svg_42" x="463.16" y="169.74">Конец</text><path id="svg_43" marker-end="url(#arrow)" stroke="#34495e" stroke-width="2" d="M400 140h65"/><path id="svg_44" marker-end="url(#arrow)" stroke="#34495e" stroke-width="2" transform="scale(1.42285 1.32951) rotate(-27.646 206.957 555.9)" d="M416.21 337.9h60"/><text class="branch-label" fill="#27ae60" font-size="11" id="svg_45" x="460.53" y="355.26">ДА</text><path id="svg_46" marker-end="url(#arrow)" stroke="#34495e" stroke-width="2" d="M490 320v-40"/><path id="svg_47" marker-end="url(#arrow)" stroke="#34495e" stroke-width="2" d="M490 280V170"/><path id="svg_48" marker-end="url(#arrow)" stroke="#34495e" stroke-width="2" d="M490 170v-30"/><rect fill="#e3f2fd" height="60" id="svg_49" rx="10" stroke="#2196f3" stroke-width="2" width="120" x="540" y="110"/><text class="process-text" id="svg_50" x="600" y="130">Ввести счет</text><text class="process-text" id="svg_51" x="600" y="145">матча</text><text class="process-text" id="svg_52" x="600" y="160">(голы команд)</text><path id="svg_53" marker-end="url(#arrow)" stroke="#34495e" stroke-width="2" d="M490 140h50"/><path id="svg_54" marker-end="url(#arrow)" stroke="#34495e" stroke-width="2" d="M600 170v40"/><path id="svg_55" marker-end="url(#arrow)" stroke="#34495e" stroke-width="2" d="M600 210v70"/><rect fill="#fff3e0" height="60" id="svg_56" rx="10" stroke="#ff9800" stroke-width="2" width="120" x="540" y="280"/><text class="process-text" id="svg_57" x="600" y="300">Валидация</text><text class="process-text" id="svg_58" x="600" y="315">введенных</text><text class="process-text" id="svg_59" x="600" y="330">данных</text><path id="svg_60" marker-end="url(#arrow)" stroke="#34495e" stroke-width="2" d="M660 310h60"/><path fill="#ffeaa7" id="svg_61" stroke="#f39c12" stroke-width="2" d="m720 280 50 30-50 30-50-30z"/><text class="condition-text" id="svg_62" x="720" y="305">Данные</text><text class="condition-text" id="svg_63" x="720" y="320">корректны?</text><path id="svg_64" marker-end="url(#arrow)" stroke="#34495e" stroke-width="2" d="M720 280V140"/><path id="svg_65" marker-end="url(#arrow)" stroke="#34495e" stroke-width="2" d="M720 140h-60"/><text class="branch-label" fill="#e74c3c" font-size="11" id="svg_66" x="743.68" y="207.89">НЕТ</text><path id="svg_67" marker-end="url(#arrow)" stroke="#34495e" stroke-width="2" transform="rotate(25.622 795 310)" d="M767.04 318.43h50"/><text class="branch-label" fill="#27ae60" id="svg_68" x="780" y="300">ДА</text><rect fill="#fff3e0" height="60" id="svg_69" rx="10" stroke="#ff9800" stroke-width="2" width="120" x="748.42" y="324.21"/><text class="process-text" font-size="11" id="svg_70" x="810.53" y="342.11">Сохранить</text><text class="process-text" font-size="11" id="svg_71" x="806.32" y="359.21">результат</text><text class="process-text" font-size="11" id="svg_72" x="806.32" y="372.11">матча</text><path id="svg_73" marker-end="url(#arrow)" stroke="#34495e" stroke-width="2" d="M810.53 385.26v40"/><path id="svg_74" marker-end="url(#arrow)" stroke="#34495e" stroke-width="2" transform="rotate(-57.406 868.421 426.579)" d="M839.24 375.25v70"/><rect fill="#e8f5e8" height="60" id="svg_75" rx="10" stroke="#27ae60" stroke-width="2" width="120" x="820" y="460"/><text class="process-text" id="svg_76" x="880" y="480">Обновить</text><text class="process-text" id="svg_77" x="880" y="495">данные</text><text class="process-text" id="svg_78" x="880" y="510">в БД</text><path id="svg_79" marker-end="url(#arrow)" stroke="#34495e" stroke-width="2" d="M894.74 460v-40"/><path id="svg_80" marker-end="url(#arrow)" stroke="#34495e" stroke-width="2" d="M894.74 421.05v-70"/><path id="svg_81" marker-end="url(#arrow)" stroke="#34495e" stroke-width="2" transform="rotate(-27.945 888.064 339.711)" d="M888.06 357.72V321.7"/><path id="svg_82" marker-end="url(#arrow)" stroke="#34495e" stroke-width="2" d="M880 323.16V140"/><circle cx="880" cy="120" fill="#e74c3c" id="svg_83" r="15" stroke="#c0392b" stroke-width="3"/><circle cx="880" cy="120" fill="#e74c3c" id="svg_84" r="10"/><text class="process-text" font-size="11" id="svg_85" x="884.21" y="84.21">Успешное</text><text class="process-text" font-size="11" id="svg_86" x="885.26" y="96.58">завершение</text></g></svg>